<svg id="pictures" xmlns="http://www.w3.org/2000/svg" xmlns:xlink="http://www.w3.org/1999/xlink" width="13.634" height="17.676" viewBox="0 0 13.634 17.676">
  <defs>
    <linearGradient id="linear-gradient" x1="-0.294" y1="-0.119" x2="2.171" y2="1.801" gradientUnits="objectBoundingBox">
      <stop offset="0" stop-color="#fc7208"/>
      <stop offset="1" stop-color="red"/>
    </linearGradient>
  </defs>
  <g id="Group_991" data-name="Group 991">
    <g id="Group_990" data-name="Group 990">
      <path id="Path_797" data-name="Path 797" d="M13.861,4.85a6.822,6.822,0,0,0-6.813,6.813,6.795,6.795,0,0,0,1.372,4.1l5.441,6.763,5.488-6.81a7.03,7.03,0,0,0,.907-1.662,6.931,6.931,0,0,0,.426-2.391A6.824,6.824,0,0,0,13.861,4.85Z" transform="translate(-7.048 -4.85)" fill="#fff"/>
    </g>
    <g id="Path_798" data-name="Path 798" transform="translate(-8.552 -6.362)" fill="url(#linear-gradient)">
      <path d="M 15.36599922180176 16.50099945068359 C 13.54581928253174 16.50099945068359 12.0649995803833 15.02017974853516 12.0649995803833 13.19999980926514 C 12.0649995803833 11.37981986999512 13.54581928253174 9.89900016784668 15.36599922180176 9.89900016784668 C 17.18618011474609 9.89900016784668 18.66699981689453 11.37981986999512 18.66699981689453 13.19999980926514 C 18.66699981689453 15.02017974853516 17.18618011474609 16.50099945068359 15.36599922180176 16.50099945068359 Z" stroke="none"/>
      <path d="M 15.36599922180176 15.50099945068359 C 16.63875007629395 15.50099945068359 17.66699981689453 14.46299934387207 17.66699981689453 13.19999980926514 C 17.66699981689453 11.92724990844727 16.63875007629395 10.89900016784668 15.36599922180176 10.89900016784668 C 14.10299968719482 10.89900016784668 13.0649995803833 11.92724990844727 13.0649995803833 13.19999980926514 C 13.0649995803833 14.46299934387207 14.10299968719482 15.50099945068359 15.36599922180176 15.50099945068359 M 15.36599922180176 17.50099945068359 C 12.99441909790039 17.50099945068359 11.0649995803833 15.5715799331665 11.0649995803833 13.19999980926514 C 11.0649995803833 10.82841968536377 12.99441909790039 8.89900016784668 15.36599922180176 8.89900016784668 C 17.73757934570312 8.89900016784668 19.66699981689453 10.82841968536377 19.66699981689453 13.19999980926514 C 19.66699981689453 15.5715799331665 17.73757934570312 17.50099945068359 15.36599922180176 17.50099945068359 Z" stroke="none" fill="#202020"/>
    </g>
  </g>
</svg>
